<svg width="25" height="24" viewBox="0 0 25 24" fill="none" xmlns="http://www.w3.org/2000/svg">
<path d="M13.3887 0.0786792C13.7591 0.234979 13.9999 0.597959 13.9999 0.999999V23C13.9999 23.4028 13.7582 23.7664 13.3867 23.9222C13.0152 24.078 12.5865 23.9956 12.2991 23.7134L6.44629 17.9634H3C1.34316 17.9634 0 16.6202 0 14.9634V8.98545C0 7.32861 1.34316 5.98545 3 5.98545H6.44877L12.3022 0.283699C12.5902 0.00313919 13.0182 -0.0776207 13.3887 0.0786792ZM19.4754 2.11836L19.6485 2.23596L19.8441 2.4051C19.9699 2.51816 20.1435 2.68194 20.3491 2.8954C20.7597 3.32178 21.3009 3.95005 21.8409 4.77253C22.9217 6.41875 24.0065 8.85867 24.0065 12.0081C24.0065 15.1577 22.9215 17.594 21.8401 19.2366C21.2999 20.0572 20.7585 20.6836 20.3477 21.1086L20.0652 21.3904L19.6917 21.7284L19.6257 21.7826C19.1927 22.1256 18.5623 22.0538 18.2193 21.621C17.9151 21.237 17.9382 20.6986 18.2495 20.3425L18.5079 20.1076C18.6011 20.0242 18.7401 19.894 18.9097 19.7186C19.2495 19.367 19.7089 18.8368 20.1697 18.137C21.0899 16.7388 22.0065 14.679 22.0065 12.0081C22.0065 9.33693 21.0899 7.27285 20.1689 5.87017C19.7849 5.28521 19.4018 4.818 19.0878 4.47413L18.7494 4.12159L18.3807 3.78276C17.9493 3.43864 17.8771 2.80902 18.2209 2.37716C18.5267 1.9931 19.0577 1.89403 19.4754 2.11836ZM11.9999 3.37014L7.55307 7.70177C7.36635 7.88367 7.11599 7.98545 6.85531 7.98545H3C2.44772 7.98545 2 8.43317 2 8.98545V14.9634C2 15.5157 2.44772 15.9634 3 15.9634H6.85531C7.11745 15.9634 7.36911 16.0664 7.55611 16.25L11.9999 20.6158V3.37014ZM17.477 6.11816L17.6761 6.25763L17.9434 6.5091L18.0515 6.62237C18.2785 6.86723 18.5713 7.22591 18.8613 7.70285C19.4443 8.66191 20.0085 10.0888 20.0085 11.9971C20.0085 13.9053 19.4443 15.3337 18.8617 16.2942C18.5721 16.7718 18.2793 17.1314 18.0525 17.3768L17.8494 17.5853L17.7088 17.7154L17.6293 17.7828L17.5024 17.8404C17.2376 17.9465 16.6184 18.1193 16.2239 17.6258C15.919 17.2443 15.9386 16.7081 16.2458 16.3506L16.5147 16.0921L16.5835 16.0196C16.7325 15.8584 16.9407 15.6049 17.1517 15.2569C17.5709 14.566 18.0085 13.4922 18.0085 11.9971C18.0085 10.5021 17.5709 9.43043 17.1523 8.74179C16.9941 8.4816 16.8375 8.27454 16.7064 8.11964L16.5159 7.90989L16.3789 7.77989C15.9495 7.43745 15.8789 6.80943 16.2225 6.37747C16.5281 5.99329 17.0591 5.894 17.477 6.11816Z" fill="white" fill-opacity="0.6"/>
</svg>
