<svg width="24" height="24" viewBox="0 0 24 24" fill="none" xmlns="http://www.w3.org/2000/svg">
<path d="M12.0137 1.99902C6.49087 1.99902 2.01367 6.47602 2.01367 11.999C2.01367 17.522 6.49087 21.999 12.0137 21.999C17.5367 21.999 22.0137 17.522 22.0137 11.999C22.0137 6.47602 17.5367 1.99902 12.0137 1.99902ZM12.0137 3.99902C16.4317 3.99902 20.0137 7.58102 20.0137 11.999C20.0137 16.065 16.9407 19.302 13.0137 19.811V14.999H15.0137V11.999H13.0137V10.999C13.0137 10.429 13.4947 9.99802 14.0137 9.99902C14.3097 9.99902 15.0137 9.99902 15.0137 9.99902V6.99902H13.0137C11.3147 7.01802 10.0247 8.36502 10.0137 9.99902V11.999H8.01367V14.999H10.0137V19.593C6.58677 18.689 4.01367 15.71 4.01367 11.999C4.01367 7.58102 7.59537 3.99902 12.0137 3.99902Z" fill="white" fill-opacity="0.8"/>
</svg>
