<svg width="24" height="24" viewBox="0 0 24 24" fill="none" xmlns="http://www.w3.org/2000/svg">
<path d="M12.0141 1.99902C6.49133 1.99902 2.01413 6.47602 2.01413 11.999C2.01413 17.522 6.49133 21.999 12.0141 21.999C17.5371 21.999 22.0141 17.522 22.0141 11.999C22.0141 6.47602 17.5371 1.99902 12.0141 1.99902ZM12.0141 3.99902C16.4321 3.99902 20.0141 7.58102 20.0141 11.999C20.0141 16.065 16.9411 19.302 13.0141 19.811V14.999H15.0141V11.999H13.0141V10.999C13.0141 10.429 13.4951 9.99802 14.0141 9.99902C14.3101 9.99902 15.0141 9.99902 15.0141 9.99902V6.99902H13.0141C11.3151 7.01802 10.0251 8.36502 10.0141 9.99902V11.999H8.01413V14.999H10.0141V19.593C6.58723 18.689 4.01413 15.71 4.01413 11.999C4.01413 7.58102 7.59583 3.99902 12.0141 3.99902Z" fill="white" fill-opacity="0.8"/>
</svg>
