<svg width="48" height="48" viewBox="0 0 48 48" fill="none" xmlns="http://www.w3.org/2000/svg">
<path fill-rule="evenodd" clip-rule="evenodd" d="M15.7645 35.0689C15.5341 35.0723 15.3042 35.0486 15.0793 34.9982C14.7194 34.899 14.384 34.7252 14.0944 34.488C13.704 34.1806 13.3884 33.7873 13.1718 33.3381C13.006 32.9692 12.9312 32.5652 12.9538 32.1608C12.959 32.0285 12.9773 31.897 13.0083 31.7683C13.0167 31.7336 13.0161 31.6974 13.0065 31.663C12.997 31.6287 12.9788 31.5973 12.9538 31.5721C12.6168 31.0838 12.3075 30.5768 12.0273 30.0533C12.0095 30.0281 12 29.9979 12 29.9669C12 29.936 12.0095 29.9058 12.0273 29.8806C12.1849 29.6259 12.3592 29.382 12.549 29.1506C12.7164 28.9466 12.8915 28.7582 13.0745 28.5619L13.1329 28.5031C13.203 28.4364 13.2497 28.4128 13.3236 28.5031C13.6896 29.0525 14.1022 29.5706 14.4915 30.0729C14.8263 30.485 15.1805 30.8853 15.5387 31.2817C15.8968 31.6781 16.2316 32.0234 16.5937 32.3727C17.0725 32.8397 17.5669 33.2871 18.0885 33.7031C18.5089 34.0406 18.9333 34.3625 19.3771 34.6607C19.4316 34.6961 19.416 34.7157 19.3771 34.751C18.9521 35.217 18.4738 35.6307 17.9523 35.9833C17.9376 35.9942 17.9199 36 17.9017 36C17.8835 36 17.8657 35.9942 17.8511 35.9833C17.3678 35.7078 16.9012 35.4038 16.4535 35.0728C16.4036 35.0224 16.341 34.9866 16.2724 34.9693C16.2038 34.952 16.1318 34.9539 16.0642 34.9747C15.9928 34.9924 15.9197 35.0029 15.8462 35.0061C15.8501 35.0689 15.8034 35.0493 15.7645 35.0689Z" fill="white" fill-opacity="0.8"/>
<path fill-rule="evenodd" clip-rule="evenodd" d="M35.7894 20.7088C35.3918 18.45 34.2623 16.388 32.5778 14.8455C30.6502 13.003 28.0906 11.9835 25.4344 12.0002C24.8958 11.9971 24.3579 12.0404 23.8266 12.1297C22.6878 12.3101 21.5867 12.6801 20.5683 13.2247C20.0017 13.5256 19.4659 13.8818 18.9683 14.2882C18.6667 14.5328 18.3794 14.7949 18.108 15.0731C17.9017 15.289 17.6837 15.4931 17.489 15.7207C17.2944 15.9483 17.1698 16.0935 17.018 16.2858C16.7198 16.6696 16.4479 17.0735 16.2044 17.4946C15.8746 18.0598 15.5983 18.6551 15.3791 19.2724C15.2444 19.6475 15.1313 20.0302 15.0404 20.4184C14.947 20.8344 14.873 21.2543 14.8146 21.6743C14.7757 21.9294 14.7718 22.1923 14.7562 22.4592C14.7508 22.5056 14.7417 22.5516 14.729 22.5965V23.3815C14.7523 23.4364 14.729 23.4992 14.729 23.5581C14.7341 23.8775 14.7614 24.1962 14.8107 24.5117C14.8533 24.8488 14.9157 25.1829 14.9976 25.5125C14.9976 25.5792 15.0521 25.642 14.9976 25.7127C14.8574 25.8814 14.7134 26.0423 14.5771 26.215C14.3697 26.4798 14.1773 26.7563 14.001 27.0431C13.9868 27.0616 13.9791 27.0844 13.9791 27.1078C13.9791 27.1313 13.9868 27.154 14.001 27.1726C14.1567 27.4277 14.3046 27.6906 14.4642 27.9575C14.9129 28.6684 15.4057 29.35 15.9396 29.9983C16.255 30.3907 16.582 30.744 16.9129 31.1129C17.0725 31.2855 17.2438 31.4504 17.415 31.6113C17.5863 31.7722 17.8043 31.9841 18.0029 32.1646C18.2754 32.4119 18.5557 32.6434 18.8398 32.8789C19.2058 33.1772 19.5795 33.4598 19.9688 33.7266C20.3581 33.9935 20.7473 34.2486 21.1366 34.4841C21.1692 34.5105 21.2097 34.5249 21.2515 34.5249C21.2933 34.5249 21.3338 34.5105 21.3663 34.4841C21.7865 34.2082 22.1778 33.89 22.5342 33.5343C22.5653 33.5069 22.5926 33.4715 22.6354 33.4912C22.7082 33.5131 22.7823 33.5302 22.8573 33.5422C23.2301 33.6359 23.6085 33.7054 23.9901 33.7502C24.2704 33.7855 24.5585 33.7894 24.8466 33.809C24.9361 33.809 25.0256 33.809 25.1113 33.809C25.1902 33.8001 25.2698 33.8001 25.3487 33.809C25.4383 33.7855 25.5278 33.809 25.6134 33.809C25.8548 33.809 26.0923 33.7855 26.3297 33.758C26.9085 33.6921 27.4812 33.5806 28.0426 33.4244C28.9383 33.1717 29.796 32.7981 30.5924 32.3138C31.5176 31.7542 32.3525 31.0554 33.0683 30.2416C34.2474 28.9894 35.1102 27.4695 35.5838 25.8103C36.0575 24.1511 36.128 22.4013 35.7894 20.7088ZM31.6902 29.3429C30.5431 30.5399 29.0734 31.3721 27.4626 31.7369C26.7105 31.924 25.9359 32.0033 25.1619 31.9723C22.9965 31.9124 20.9311 31.0406 19.3693 29.5273C17.9773 28.2303 17.0402 26.513 16.6988 24.6334C16.4131 23.2685 16.4452 21.8555 16.7923 20.5052C17.1395 19.1549 17.7924 17.9041 18.6997 16.851C19.9361 15.3794 21.6334 14.3771 23.5113 14.0096C24.191 13.8595 24.887 13.7975 25.5823 13.8251C27.5128 13.8795 29.3703 14.581 30.861 15.8188C32.417 17.0743 33.5129 18.8173 33.9753 20.7716C34.1487 21.4975 34.2311 22.2424 34.2206 22.989C34.2371 25.362 33.3284 27.6466 31.6902 29.3507V29.3429Z" fill="white" fill-opacity="0.8"/>
<path fill-rule="evenodd" clip-rule="evenodd" d="M25.2397 15.599C26.9229 15.5988 28.5557 16.1773 29.8687 17.2391C31.1816 18.3008 32.0961 19.7822 32.461 21.4387C32.893 23.2665 32.632 25.1911 31.7292 26.835C31.6373 27.0329 31.5237 27.2199 31.3905 27.3923C31.1989 27.6142 30.9529 27.7816 30.677 27.8775C30.4011 27.9735 30.1051 27.9947 29.8185 27.9391C29.5319 27.8834 29.2649 27.7529 29.0441 27.5605C28.8233 27.3681 28.6565 27.1206 28.5604 26.8428C28.3405 26.192 27.8766 25.6538 27.2679 25.3437C26.8349 25.11 26.3472 24.9987 25.8566 25.0215C25.3659 25.0443 24.8905 25.2003 24.4806 25.4732C23.9359 25.7969 23.3249 25.9907 22.6945 26.0398C22.064 26.0888 21.4308 25.9919 20.8432 25.7563C20.2557 25.5207 19.7293 25.1528 19.3045 24.6806C18.8797 24.2084 18.5676 23.6445 18.3922 23.0321C18.2219 22.4754 18.1652 21.8897 18.2254 21.3104C18.2856 20.731 18.4615 20.1699 18.7425 19.6609C19.2491 18.6502 19.9796 17.7706 20.8774 17.09C21.7752 16.4095 22.8163 15.9463 23.9201 15.7363C24.0758 15.701 24.2354 15.6814 24.395 15.6617C24.6748 15.621 24.957 15.6 25.2397 15.599ZM28.2567 29.8177C28.4994 29.7665 28.7231 29.6483 28.9029 29.4762C28.9988 29.3723 29.067 29.2455 29.1011 29.1078C29.1352 28.9701 29.1341 28.8259 29.0979 28.6887C29.0618 28.5515 28.9917 28.4258 28.8943 28.3233C28.7969 28.2208 28.6753 28.1449 28.5409 28.1026C28.3462 28.052 28.1695 27.9473 28.0309 27.8004C27.8768 27.6308 27.76 27.4302 27.6884 27.2118C27.572 26.9238 27.3626 26.6838 27.0942 26.5307C26.8257 26.3776 26.5139 26.3202 26.2091 26.368C26.0006 26.4062 25.8036 26.4918 25.6329 26.6184C25.4622 26.7449 25.3224 26.909 25.2241 27.0982C25.1257 27.2874 25.0715 27.4966 25.0654 27.7101C25.0594 27.9236 25.1017 28.1357 25.1891 28.3303C25.3842 28.8107 25.7186 29.2206 26.1485 29.5063C26.5785 29.7919 27.084 29.9402 27.5988 29.9315C27.8238 29.93 28.0471 29.8929 28.2606 29.8216L28.2567 29.8177Z" fill="white" fill-opacity="0.8"/>
</svg>
