<svg width="24" height="24" viewBox="0 0 24 24" fill="none" xmlns="http://www.w3.org/2000/svg">
<path d="M7.99835 2.99072C5.23735 2.99072 2.99835 5.22972 2.99835 7.99072V15.9907C2.99835 18.7517 5.23735 20.9907 7.99835 20.9907H15.9984C18.7594 20.9907 20.9984 18.7517 20.9984 15.9907V7.99072C20.9984 5.22972 18.7594 2.99072 15.9984 2.99072H7.99835ZM7.99835 4.99072H15.9984C17.6554 4.99072 18.9984 6.33372 18.9984 7.99072V15.9907C18.9984 17.6477 17.6554 18.9907 15.9984 18.9907H7.99835C6.34135 18.9907 4.99835 17.6477 4.99835 15.9907V7.99072C4.99835 6.33372 6.34135 4.99072 7.99835 4.99072ZM15.9984 6.99072C15.4464 6.99072 14.9984 7.43872 14.9984 7.99072C14.9984 8.54272 15.4464 8.99072 15.9984 8.99072C16.5504 8.99072 16.9984 8.54272 16.9984 7.99072C16.9984 7.43872 16.5504 6.99072 15.9984 6.99072ZM11.9984 7.99072C9.78935 7.99072 7.99835 9.78172 7.99835 11.9907C7.99835 14.1997 9.78935 15.9907 11.9984 15.9907C14.2074 15.9907 15.9984 14.1997 15.9984 11.9907C15.9984 9.78172 14.2074 7.99072 11.9984 7.99072ZM11.9984 9.99072C13.1034 9.99072 13.9984 10.8857 13.9984 11.9907C13.9984 13.0957 13.1034 13.9907 11.9984 13.9907C10.8934 13.9907 9.99835 13.0957 9.99835 11.9907C9.99835 10.8857 10.8934 9.99072 11.9984 9.99072Z" fill="white" fill-opacity="0.8"/>
</svg>
