<svg width="24" height="24" viewBox="0 0 24 24" fill="none" xmlns="http://www.w3.org/2000/svg">
<path d="M7.99854 2.99072C5.23754 2.99072 2.99854 5.22972 2.99854 7.99072V15.9907C2.99854 18.7517 5.23754 20.9907 7.99854 20.9907H15.9985C18.7595 20.9907 20.9985 18.7517 20.9985 15.9907V7.99072C20.9985 5.22972 18.7595 2.99072 15.9985 2.99072H7.99854ZM7.99854 4.99072H15.9985C17.6555 4.99072 18.9985 6.33372 18.9985 7.99072V15.9907C18.9985 17.6477 17.6555 18.9907 15.9985 18.9907H7.99854C6.34154 18.9907 4.99854 17.6477 4.99854 15.9907V7.99072C4.99854 6.33372 6.34154 4.99072 7.99854 4.99072ZM15.9985 6.99072C15.4465 6.99072 14.9985 7.43872 14.9985 7.99072C14.9985 8.54272 15.4465 8.99072 15.9985 8.99072C16.5505 8.99072 16.9985 8.54272 16.9985 7.99072C16.9985 7.43872 16.5505 6.99072 15.9985 6.99072ZM11.9985 7.99072C9.78954 7.99072 7.99854 9.78172 7.99854 11.9907C7.99854 14.1997 9.78954 15.9907 11.9985 15.9907C14.2075 15.9907 15.9985 14.1997 15.9985 11.9907C15.9985 9.78172 14.2075 7.99072 11.9985 7.99072ZM11.9985 9.99072C13.1035 9.99072 13.9985 10.8857 13.9985 11.9907C13.9985 13.0957 13.1035 13.9907 11.9985 13.9907C10.8935 13.9907 9.99854 13.0957 9.99854 11.9907C9.99854 10.8857 10.8935 9.99072 11.9985 9.99072Z" fill="white" fill-opacity="0.8"/>
</svg>
