<svg width="24" height="24" viewBox="0 0 24 24" fill="none" xmlns="http://www.w3.org/2000/svg">
<path d="M7.99805 2.99072C5.23705 2.99072 2.99805 5.22972 2.99805 7.99072V15.9907C2.99805 18.7517 5.23705 20.9907 7.99805 20.9907H15.998C18.759 20.9907 20.998 18.7517 20.998 15.9907V7.99072C20.998 5.22972 18.759 2.99072 15.998 2.99072H7.99805ZM7.99805 4.99072H15.998C17.655 4.99072 18.998 6.33372 18.998 7.99072V15.9907C18.998 17.6477 17.655 18.9907 15.998 18.9907H7.99805C6.34105 18.9907 4.99805 17.6477 4.99805 15.9907V7.99072C4.99805 6.33372 6.34105 4.99072 7.99805 4.99072ZM15.998 6.99072C15.446 6.99072 14.998 7.43872 14.998 7.99072C14.998 8.54272 15.446 8.99072 15.998 8.99072C16.55 8.99072 16.998 8.54272 16.998 7.99072C16.998 7.43872 16.55 6.99072 15.998 6.99072ZM11.998 7.99072C9.78905 7.99072 7.99805 9.78172 7.99805 11.9907C7.99805 14.1997 9.78905 15.9907 11.998 15.9907C14.207 15.9907 15.998 14.1997 15.998 11.9907C15.998 9.78172 14.207 7.99072 11.998 7.99072ZM11.998 9.99072C13.103 9.99072 13.998 10.8857 13.998 11.9907C13.998 13.0957 13.103 13.9907 11.998 13.9907C10.893 13.9907 9.99805 13.0957 9.99805 11.9907C9.99805 10.8857 10.893 9.99072 11.998 9.99072Z" fill="white" fill-opacity="0.8"/>
</svg>
