<svg width="24" height="24" viewBox="0 0 24 24" fill="none" xmlns="http://www.w3.org/2000/svg">
<path d="M16.0009 2.92993C13.2679 2.92993 11.0009 5.14792 11.0009 7.86792C11.0009 8.22092 11.0179 8.32396 11.0179 8.55396C8.65987 8.43795 7.14886 7.65296 4.95587 5.47296C4.75987 5.27896 4.50688 5.18393 4.25088 5.17993C4.20488 5.17893 4.05088 5.17993 4.00088 5.17993C3.44888 5.17993 3.00088 5.62793 3.00088 6.17993C3.00088 6.60893 3.00088 8.44693 3.00088 8.92993C3.00088 10.1379 3.40286 11.277 4.02386 12.127C4.02386 12.135 4.00088 12.0239 4.00088 12.9299C4.00088 14.4799 4.63088 15.64 5.67788 16.33C5.33288 16.868 4.39986 17.2559 3.65786 17.5859C3.21386 17.7829 2.87087 17.9319 2.68887 17.9929C2.46687 18.0689 2.28086 18.2429 2.15786 18.4609C2.14986 18.4739 2.13288 18.4789 2.12588 18.4929C2.11888 18.5059 2.10187 18.5089 2.09487 18.5239C1.99088 18.7549 1.99487 18.9889 2.06387 19.2109C2.06687 19.2219 2.05987 19.2319 2.06387 19.2429C2.14087 19.4649 2.31386 19.6499 2.53286 19.7739C2.54486 19.7809 2.55087 19.7979 2.56387 19.8049C2.57787 19.8119 2.58087 19.8299 2.59487 19.8359C4.19587 20.5569 6.06188 20.9299 8.00088 20.9299C14.6989 20.9299 20.2519 16.0919 21.0039 9.18994L21.9078 7.36792C22.2398 6.70292 21.7449 5.92993 21.0009 5.92993C21.0229 5.92993 20.9948 5.93093 20.9078 5.89893C20.7128 5.82593 20.4938 5.66693 20.2829 5.42993C20.1908 5.32693 20.0879 5.22194 20.0009 5.08594C19.0549 3.72394 17.6279 2.92993 16.0009 2.92993ZM16.0009 4.92993C16.9559 4.92993 17.7859 5.37593 18.3449 6.17993C18.4659 6.37193 18.6179 6.58993 18.7829 6.77393C19.0578 7.08293 19.9829 7.42291 19.9829 7.42291C19.9829 7.42291 19.4298 8.46095 19.0108 8.94495C18.4818 14.5779 13.7919 18.9299 8.00088 18.9299C7.30988 18.9299 6.35088 18.9159 5.45388 18.7509C7.31988 18.1929 9.00088 16.2059 9.00088 15.9299C7.01288 15.9299 6.27387 14.5279 6.08187 13.6179C6.66687 13.8399 8.22488 14.0039 9.01888 13.4259C6.08188 12.2349 5.00088 10.7359 5.00088 8.92993C5.00088 8.80393 5.00088 8.47294 5.00088 8.21094C7.17788 10.0299 8.95187 10.5719 12.0049 10.5499C12.3739 10.5479 13.0039 10.2779 13.0009 9.55493C12.9999 9.27693 13.0009 9.14192 13.0009 7.86792C13.0009 6.26292 14.3619 4.92993 16.0009 4.92993ZM17.0009 6.92993C16.4489 6.92993 16.0009 7.37793 16.0009 7.92993C16.0009 8.48193 16.4489 8.92993 17.0009 8.92993C17.5539 8.92993 18.0009 8.48193 18.0009 7.92993C18.0009 7.37793 17.5539 6.92993 17.0009 6.92993Z" fill="white" fill-opacity="0.8"/>
</svg>
