<svg width="24" height="24" viewBox="0 0 24 24" fill="none" xmlns="http://www.w3.org/2000/svg">
<path d="M16.0004 2.92993C13.2674 2.92993 11.0004 5.14792 11.0004 7.86792C11.0004 8.22092 11.0174 8.32396 11.0174 8.55396C8.65945 8.43795 7.14844 7.65296 4.95544 5.47296C4.75944 5.27896 4.50645 5.18393 4.25045 5.17993C4.20445 5.17893 4.05045 5.17993 4.00045 5.17993C3.44845 5.17993 3.00045 5.62793 3.00045 6.17993C3.00045 6.60893 3.00045 8.44693 3.00045 8.92993C3.00045 10.1379 3.40243 11.277 4.02343 12.127C4.02343 12.135 4.00045 12.0239 4.00045 12.9299C4.00045 14.4799 4.63045 15.64 5.67745 16.33C5.33245 16.868 4.39943 17.2559 3.65743 17.5859C3.21344 17.7829 2.87044 17.9319 2.68844 17.9929C2.46644 18.0689 2.28044 18.2429 2.15744 18.4609C2.14944 18.4739 2.13245 18.4789 2.12545 18.4929C2.11845 18.5059 2.10145 18.5089 2.09445 18.5239C1.99045 18.7549 1.99444 18.9889 2.06344 19.2109C2.06644 19.2219 2.05944 19.2319 2.06344 19.2429C2.14044 19.4649 2.31344 19.6499 2.53244 19.7739C2.54444 19.7809 2.55044 19.7979 2.56344 19.8049C2.57744 19.8119 2.58045 19.8299 2.59445 19.8359C4.19545 20.5569 6.06145 20.9299 8.00045 20.9299C14.6984 20.9299 20.2514 16.0919 21.0034 9.18994L21.9074 7.36792C22.2394 6.70292 21.7444 5.92993 21.0004 5.92993C21.0224 5.92993 20.9944 5.93093 20.9074 5.89893C20.7124 5.82593 20.4934 5.66693 20.2824 5.42993C20.1904 5.32693 20.0874 5.22194 20.0004 5.08594C19.0544 3.72394 17.6274 2.92993 16.0004 2.92993ZM16.0004 4.92993C16.9554 4.92993 17.7854 5.37593 18.3444 6.17993C18.4654 6.37193 18.6174 6.58993 18.7824 6.77393C19.0574 7.08293 19.9824 7.42291 19.9824 7.42291C19.9824 7.42291 19.4294 8.46095 19.0104 8.94495C18.4814 14.5779 13.7914 18.9299 8.00045 18.9299C7.30945 18.9299 6.35045 18.9159 5.45345 18.7509C7.31945 18.1929 9.00045 16.2059 9.00045 15.9299C7.01245 15.9299 6.27344 14.5279 6.08144 13.6179C6.66644 13.8399 8.22445 14.0039 9.01845 13.4259C6.08146 12.2349 5.00045 10.7359 5.00045 8.92993C5.00045 8.80393 5.00045 8.47294 5.00045 8.21094C7.17745 10.0299 8.95145 10.5719 12.0044 10.5499C12.3734 10.5479 13.0034 10.2779 13.0004 9.55493C12.9994 9.27693 13.0004 9.14192 13.0004 7.86792C13.0004 6.26292 14.3614 4.92993 16.0004 4.92993ZM17.0004 6.92993C16.4484 6.92993 16.0004 7.37793 16.0004 7.92993C16.0004 8.48193 16.4484 8.92993 17.0004 8.92993C17.5534 8.92993 18.0004 8.48193 18.0004 7.92993C18.0004 7.37793 17.5534 6.92993 17.0004 6.92993Z" fill="white" fill-opacity="0.8"/>
</svg>
