<svg width="124" height="48" viewBox="0 0 124 48" fill="none" xmlns="http://www.w3.org/2000/svg">
<path fill-rule="evenodd" clip-rule="evenodd" d="M36.357 33.9487C35.1928 33.9487 34.0238 33.9487 32.8548 33.9487C32.5564 33.9487 32.4782 33.87 32.4782 33.5784C32.4782 27.3055 32.4782 21.0326 32.4782 14.7597C32.4782 14.4773 32.5369 14.3801 32.8499 14.3848C34.3173 14.3848 35.7553 14.3848 37.2081 14.3848C37.4771 14.3848 37.5798 14.4449 37.6532 14.7319C38.8124 19.2769 39.9961 23.8127 41.17 28.3577C41.1918 28.4814 41.2437 28.5987 41.3216 28.7002C41.5384 28.119 41.702 27.5213 41.8108 26.9137C42.5542 24.2061 43.1999 21.4707 43.9532 18.7585C44.3298 17.4117 44.6379 16.0556 45.0097 14.718C45.0733 14.482 45.1662 14.4033 45.3912 14.4033C46.8879 14.4033 48.3945 14.4033 49.8961 14.4033C50.3363 14.4033 50.2434 14.6717 50.2434 14.9078C50.2434 20.1038 50.2434 25.2984 50.2434 30.4913C50.2434 31.5235 50.2434 32.5556 50.2434 33.5923C50.2434 33.8839 50.1651 33.9672 49.8618 33.9626C48.6977 33.9626 47.5287 33.9626 46.3597 33.9626C46.3036 33.8144 46.2885 33.6551 46.3157 33.4998C46.3157 29.7971 46.3157 26.0944 46.3157 22.4242C46.3157 22.2946 46.433 22.1048 46.208 22.0215C45.7776 23.4563 45.3374 24.8864 44.9119 26.3259C44.1814 28.7943 43.4559 31.2751 42.7352 33.7682C42.6814 33.9348 42.6178 33.9811 42.4564 33.9811C41.7276 33.9811 40.989 33.9811 40.2749 33.9811C39.8689 33.9811 39.9081 33.6247 39.8445 33.4211C39.4091 32.0326 39.0081 30.6071 38.5972 29.1954C38.2108 27.8671 37.839 26.5341 37.4526 25.2104C37.1542 24.1783 36.8363 23.1462 36.5282 22.1141C36.2738 22.2066 36.4108 22.4103 36.4108 22.5769C36.4108 26.224 36.4108 29.8712 36.4108 33.5229C36.4296 33.6669 36.4112 33.813 36.357 33.9487Z" fill="white" fill-opacity="0.8"/>
<path fill-rule="evenodd" clip-rule="evenodd" d="M104.674 19.9295C104.674 18.7539 104.375 17.6801 103.152 17.1525C101.573 16.4953 99.7286 17.2543 99.7286 19.1288C99.6678 19.2905 99.6678 19.467 99.7286 19.6287C99.6846 20.4386 100.218 20.9292 100.829 21.355C101.833 21.9786 102.914 22.4838 104.048 22.8592C105.515 23.4424 106.889 24.1737 107.809 25.4928C108.312 26.2514 108.608 27.1167 108.67 28.0106C108.703 28.357 108.703 28.7055 108.67 29.0519C108.401 31.8567 106.376 33.384 103.803 33.7821C103.446 33.8376 103.084 33.8608 102.722 33.8978C102.424 33.9266 102.125 33.9266 101.827 33.8978C100.418 33.8642 99.0458 33.4604 97.865 32.7315C97.2641 32.3656 96.7491 31.8867 96.3519 31.3246C95.9548 30.7625 95.684 30.1291 95.5563 29.4639C95.4879 29.1214 95.4781 28.7789 95.434 28.4364C95.392 28.1787 95.392 27.9165 95.434 27.6588C95.9067 27.5779 96.3888 27.5577 96.8672 27.5986C97.5031 27.5986 98.1389 27.5986 98.7797 27.5986C99.1661 27.5986 99.2688 27.6727 99.2688 28.0615C99.2477 28.4795 99.3147 28.8973 99.4659 29.2907C99.617 29.684 99.8493 30.0449 100.149 30.3525C100.917 31.0884 103.152 31.3846 104.131 30.2738C104.434 29.9136 104.635 29.4862 104.716 29.0319C104.796 28.5776 104.753 28.1115 104.591 27.6773C104.336 26.7748 103.573 26.3166 102.791 25.8954C101.891 25.4326 100.888 25.178 99.9683 24.7522C99.0084 24.3379 98.1105 23.8057 97.2976 23.1693C96.5249 22.5299 96.007 21.6593 95.8302 20.7024C95.6094 19.6676 95.6649 18.597 95.9917 17.5876C96.3398 16.5868 97.0276 15.7228 97.9482 15.1299C100.159 13.6026 104.018 13.6443 106.175 15.1299C106.865 15.5766 107.436 16.1693 107.842 16.861C108.248 17.5528 108.478 18.3245 108.513 19.1149C108.513 19.3602 108.567 19.5778 108.592 19.8462C108.552 19.9897 108.435 20.0036 108.308 20.0036H104.835C104.803 20.0127 104.769 20.0102 104.739 19.9965C104.709 19.9827 104.686 19.9588 104.674 19.9295Z" fill="white" fill-opacity="0.8"/>
<path fill-rule="evenodd" clip-rule="evenodd" d="M82.0172 14.3848C82.6629 14.3848 83.3134 14.3848 83.9737 14.3848C86.9574 14.3848 89.9411 14.3848 92.9297 14.3848C93.321 14.3848 93.4188 14.4774 93.4188 14.8476C93.3944 15.565 93.4188 16.2963 93.4188 17.0183C93.4188 17.3099 93.3357 17.384 93.0373 17.3793C90.8362 17.3793 88.6351 17.3793 86.4438 17.3793C86.0623 17.3793 85.9547 17.4626 85.9547 17.8422C85.9547 19.2307 85.9547 20.6192 85.9547 22.0077C85.9547 22.2946 86.0379 22.3779 86.3411 22.3779C88.1509 22.3779 89.9607 22.3779 91.7705 22.3779C92.1178 22.3779 92.2156 22.4612 92.2058 22.7945C92.1764 23.498 92.1764 24.2107 92.2058 24.9189C92.2058 25.2799 92.1324 25.3817 91.7167 25.3817C89.946 25.3586 88.1558 25.3817 86.3851 25.3817C86.0476 25.3817 85.94 25.4465 85.94 25.789C85.94 27.4135 85.94 29.0288 85.94 30.6626C85.94 30.8293 85.8765 31.019 86.1895 31.019C88.5699 31.019 90.952 31.0098 93.3357 30.9912C93.365 30.9912 93.4091 31.019 93.4091 31.0375C93.451 32.0233 93.4396 33.0104 93.3748 33.995H81.9732C81.9151 33.8569 81.8999 33.706 81.9292 33.56C81.9292 27.3302 81.9292 21.0974 81.9292 14.8615C81.9341 14.681 81.8313 14.4866 82.0172 14.3848Z" fill="white" fill-opacity="0.8"/>
<path fill-rule="evenodd" clip-rule="evenodd" d="M9.82661 27.6033C10.932 27.6033 12.0375 27.6264 13.138 27.6033C13.5049 27.6033 13.6271 27.7005 13.5978 28.0661C13.5293 29.3805 13.3239 30.658 12.4924 31.7688C11.5728 32.9582 10.2717 33.5136 8.80433 33.8006C8.40735 33.8594 8.00732 33.898 7.60596 33.9163C7.28098 33.9523 6.95268 33.9523 6.62771 33.9163C5.67634 33.8913 4.73727 33.7064 3.85434 33.3702C3.03932 33.0436 2.31064 32.5507 1.72043 31.9266C1.13022 31.3025 0.693054 30.5627 0.440217 29.7601C0.189266 29.0288 0.0412526 28.2694 0 27.5014C0 25.1317 0 22.7759 0.0342391 20.4109C0.0499031 19.0558 0.464928 17.7318 1.23261 16.5879C1.72539 15.8791 2.38323 15.2865 3.15566 14.8557C3.92808 14.4248 4.79455 14.1672 5.68858 14.1025C7.27292 13.8914 8.88806 14.0815 10.3695 14.6532C11.1545 14.9555 11.8455 15.4416 12.3777 16.0657C12.9098 16.6899 13.2657 17.4317 13.4119 18.2217C13.5408 18.8046 13.6047 19.3987 13.6027 19.9943C13.6027 20.2628 13.5293 20.3368 13.2505 20.3322C12.2723 20.3322 11.3429 20.3322 10.3842 20.3322C9.74835 20.3322 9.69944 20.2581 9.69455 19.6194C9.73133 19.2482 9.6782 18.874 9.5392 18.5251C9.4002 18.1762 9.17899 17.8619 8.89238 17.6061C8.55493 17.3454 8.16039 17.1591 7.73737 17.0606C7.31435 16.9621 6.87347 16.954 6.44673 17.0368C4.8913 17.3006 4.23586 18.0782 4.00108 19.5916C3.89935 20.6177 3.86994 21.649 3.91304 22.6787C3.91304 24.3542 3.91304 26.0343 3.95217 27.7097C3.95093 28.4641 4.1784 29.203 4.6076 29.8388C4.83572 30.2008 5.16656 30.4951 5.56255 30.6882C5.95854 30.8813 6.40382 30.9654 6.84781 30.931C7.01633 30.9827 7.19777 30.9827 7.36629 30.931C7.92321 30.9642 8.47153 30.7886 8.89261 30.4421C9.3137 30.0956 9.57367 29.6062 9.61629 29.0797C9.65542 28.8344 9.81194 28.5891 9.70922 28.3253C9.81683 28.0985 9.62607 27.8162 9.82661 27.6033Z" fill="white" fill-opacity="0.8"/>
<path fill-rule="evenodd" clip-rule="evenodd" d="M78.3536 25.7935C76.2259 25.7935 74.0982 25.7518 71.9705 25.8166C71.91 25.9639 71.8947 26.1243 71.9265 26.2795C71.9265 28.6738 71.9265 31.0682 71.9265 33.4626C71.9536 33.6179 71.9385 33.7772 71.8825 33.9254C70.6792 33.9254 69.471 33.9254 68.2678 33.9254C67.9792 33.9254 67.9009 33.8606 67.9009 33.5783C67.9009 27.29 67.9009 21.0032 67.9009 14.7179C67.9009 14.4541 67.9596 14.3615 68.258 14.3615C71.92 14.3615 75.5819 14.3615 79.2438 14.3615C79.5373 14.3615 79.6596 14.4309 79.6498 14.7318C79.6498 15.4816 79.6498 16.236 79.6498 16.9904C79.6498 17.2959 79.5422 17.3514 79.2487 17.3514C76.9939 17.3514 74.739 17.3514 72.4743 17.3514C72.3129 17.3514 72.1368 17.3514 71.9852 17.3514C71.9438 17.4151 71.9265 17.4902 71.9363 17.5643V22.5583C71.9257 22.6325 71.943 22.7078 71.9852 22.7712L75.771 22.799C76.6319 22.799 77.5025 22.799 78.3683 22.799C78.4558 23.2742 78.4739 23.7585 78.4221 24.2384C78.4658 24.7574 78.4428 25.2796 78.3536 25.7935Z" fill="white" fill-opacity="0.8"/>
<path fill-rule="evenodd" clip-rule="evenodd" d="M115.293 17.4023C113.913 17.4023 112.534 17.3792 111.16 17.4023C110.851 17.4023 110.739 17.3375 110.754 17.0182C110.754 16.2637 110.754 15.514 110.754 14.7549C110.754 14.4818 110.851 14.4124 111.116 14.4124C115.286 14.4124 119.455 14.4124 123.623 14.4124C123.931 14.4124 124.009 14.5142 123.999 14.7966C123.999 15.551 123.999 16.3008 123.999 17.0552C123.999 17.3283 123.926 17.4069 123.642 17.4069C122.37 17.4069 121.094 17.4069 119.827 17.4069C119.338 17.4069 119.274 17.555 119.274 17.9716C119.274 23.1368 119.274 28.302 119.274 33.4718C119.274 33.8977 119.167 34.0087 118.731 33.9995C117.611 33.9624 116.491 33.9995 115.366 33.9995C115.31 33.8513 115.295 33.692 115.322 33.5366C115.322 28.339 115.322 23.1461 115.322 17.9485C115.374 17.7681 115.364 17.5768 115.293 17.4023Z" fill="white" fill-opacity="0.8"/>
<path fill-rule="evenodd" clip-rule="evenodd" d="M30.1401 20.2351C30.0229 18.7041 29.3209 17.2658 28.1653 16.1884C27.0097 15.1111 25.4793 14.4684 23.8597 14.3803C21.1646 14.1674 18.7483 14.6626 17.0119 16.8565C16.162 17.9271 15.6836 19.2206 15.6423 20.5591C15.5543 22.7715 15.6423 24.6552 15.6179 26.8768C15.6179 29.1909 16.5326 31.5051 18.6749 32.8288C21.3113 34.4487 25.7526 34.259 28.1592 32.0374C28.8233 31.4075 29.348 30.6586 29.7024 29.8344C30.0569 29.0103 30.2339 28.1275 30.2233 27.2378C30.3445 24.9011 30.3184 22.5596 30.145 20.2259L30.1401 20.2351ZM25.3222 28.1588C23.5516 29.0845 21.7956 26.6731 23.307 26.0205C23.5227 25.9222 23.7706 25.9078 23.9974 25.9805C24.2242 26.0532 24.4119 26.2072 24.52 26.4093C24.6853 26.7644 24.9831 27.0495 25.3564 27.21C25.4475 27.2575 25.5228 27.3278 25.5741 27.4133C25.6254 27.4988 25.6507 27.5961 25.6472 27.6944C25.6436 27.7926 25.6114 27.8881 25.554 27.97C25.4967 28.052 25.4164 28.1174 25.3222 28.1588ZM27.4793 26.363C27.3793 26.5637 27.2189 26.732 27.0181 26.8466C26.8174 26.9613 26.5853 27.0171 26.351 27.0072C26.1168 26.9973 25.8909 26.9221 25.7017 26.791C25.5126 26.6599 25.3686 26.4788 25.288 26.2705C24.7157 25.0486 23.5075 24.9884 22.2896 25.6179C19.4771 27.0758 16.6597 24.3219 18.1271 21.6421C20.6266 17.0833 28.0124 18.4255 28.2423 24.0674C28.2193 24.885 27.955 25.6802 27.4793 26.363Z" fill="white" fill-opacity="0.8"/>
<path fill-rule="evenodd" clip-rule="evenodd" d="M65.9445 20.1332C65.9102 19.8601 65.876 19.5778 65.8319 19.3047C65.6375 18.0749 65.0264 16.938 64.0906 16.0649C63.4955 15.5226 62.7927 15.0974 62.0228 14.8138C61.2529 14.5302 60.4313 14.3938 59.6053 14.4125C57.37 14.3848 55.1298 14.4125 52.8945 14.4125C52.5765 14.4125 52.5178 14.5144 52.5178 14.7874C52.5178 21.0573 52.5178 27.3287 52.5178 33.6016C52.5178 33.8932 52.601 33.9765 52.9043 33.9718C54.0831 33.9718 55.2716 33.9718 56.4456 33.9718C56.5055 33.8245 56.5224 33.6646 56.4945 33.509V27.4135C56.4945 26.909 56.4945 26.9137 56.9836 26.9044C57.9325 26.9044 58.8814 26.9044 59.8303 26.9044C60.7444 26.8728 61.6425 26.6682 62.4716 26.3027C64.6825 25.2752 65.7243 23.5026 65.9298 21.2116C65.9705 20.8609 65.9705 20.507 65.9298 20.1563L65.9445 20.1332ZM61.7184 22.2714C61.5683 22.7603 61.2467 23.1862 60.8066 23.4789C60.3665 23.7717 59.8341 23.9139 59.2972 23.8821C58.5048 23.8821 57.7075 23.859 56.9102 23.8821C56.5287 23.8821 56.4504 23.7618 56.4602 23.4193C56.4847 22.4936 56.4602 21.5263 56.4602 20.5867C56.4602 19.6472 56.4602 18.666 56.4602 17.7079C56.4602 17.4395 56.5238 17.3469 56.8173 17.3562C57.5216 17.3562 58.226 17.3562 58.9303 17.3562C60.6961 17.3562 61.5521 18.0134 61.9042 19.6703C62.1136 20.5374 62.049 21.4435 61.7184 22.2761V22.2714Z" fill="white" fill-opacity="0.8"/>
</svg>
