<svg width="36" height="36" viewBox="0 0 36 36" fill="none" xmlns="http://www.w3.org/2000/svg">
<path d="M7.49114 5.8595C7.10729 5.8595 6.7059 5.98851 6.41295 6.28101C5.8272 6.86751 5.8272 7.85149 6.41295 8.43799L15.8349 17.8595L6.41295 27.281C5.8272 27.8675 5.8272 28.8515 6.41295 29.438C6.99885 30.023 7.98344 30.023 8.56934 29.438L17.9911 20.0165L27.4129 29.438C27.9988 30.023 28.9834 30.023 29.5693 29.438C30.1551 28.8515 30.1551 27.8675 29.5693 27.281L20.1474 17.8595L29.5693 8.43799C30.1551 7.85149 30.1551 6.86751 29.5693 6.28101C29.2764 5.98851 28.8748 5.8595 28.4911 5.8595C28.1073 5.8595 27.706 5.98851 27.4129 6.28101L17.9911 15.7025L8.56934 6.28101C8.27639 5.98851 7.87499 5.8595 7.49114 5.8595Z" fill="white"/>
</svg>
